# xmcd CD database file
#
# Track frame offsets:
#	182
#	15412
#	46965
#	74305
#	93717
#	112217
#	135882
#	166972
#
# Disc length: 2633 seconds
#
# Revision: 0
# Processed by: cddbd v1.4PL0 Copyright (c) Steve Scherf et al.
# Submitted via: CDex 1.50Beta5
#
DISCID=640a4708
DTITLE=Rapid Transit - Speed
DYEAR=1997
DGENRE=Jazz
TTITLE0=Rerun
TTITLE1=Sympatico
TTITLE2=The smooth
TTITLE3=Coins
TTITLE4=Bounce Attack
TTITLE5=Pepperville
TTITLE6=Basement Dweller
TTITLE7=Funky Circus
EXTD=YEAR: 1997
EXTT0=
EXTT1=
EXTT2=
EXTT3=
EXTT4=
EXTT5=
EXTT6=
EXTT7=
PLAYORDER=
